<svg width="39" height="39" viewBox="0 0 39 39" fill="none" xmlns="http://www.w3.org/2000/svg">
<g clip-path="url(#clip0_930_1521)">
<path d="M1.38988 0H39V39H0V0H1.38988ZM8.35857 33.4308V25.0692H2.77976V36.2202H36.2199V25.0692H30.6414V33.4308H27.8617V25.0692H11.1383V33.4308H8.35857ZM2.77976 22.2894H8.35857V15.7104L8.34456 15.7266C6.90021 17.3627 4.97928 18.5764 2.78007 19.1433V22.2894H2.77976ZM2.77976 16.2437C4.14598 15.764 5.34099 14.9444 6.27017 13.8916C7.57507 12.4133 8.35825 10.4694 8.35825 8.35545H11.138C11.138 10.6645 12.074 12.7551 13.5869 14.2683C15.1 15.7814 17.1903 16.7171 19.4997 16.7171C21.8088 16.7171 23.8994 15.7811 25.4125 14.2683C26.8684 12.8124 27.7898 10.8217 27.8573 8.61631C27.8551 8.52946 27.8542 8.44261 27.8542 8.35545H27.8614H30.634H30.6411V8.70222C30.7217 10.6814 31.4887 12.4946 32.722 13.8916C33.6531 14.9462 34.8506 15.7668 36.2196 16.2462V2.78007H2.77944V16.2437H2.77976ZM36.2199 19.1451C34.0176 18.5792 32.0942 17.3646 30.6483 15.7266L30.6414 15.7185V22.2894H36.2199V19.1451ZM13.9305 22.2894V18.0071C13.0841 17.5177 12.3084 16.9204 11.6217 16.2337C11.4552 16.0672 11.294 15.8953 11.138 15.7185V22.2897H13.9305V22.2894ZM16.7103 19.1448V22.2894H22.2891V19.1448C21.3976 19.3746 20.4631 19.4969 19.4997 19.4969C18.5366 19.4969 17.6018 19.3746 16.7103 19.1448ZM25.0688 18.0071V22.2894H27.8614V15.7182C27.7054 15.895 27.5445 16.0669 27.3776 16.2334C26.6909 16.9201 25.9149 17.5174 25.0688 18.0068V18.0071Z" fill="#575656"/>
</g>
<defs>
<clipPath id="clip0_930_1521">
<rect width="39" height="39" fill="white"/>
</clipPath>
</defs>
</svg>
