<svg width="39" height="39" viewBox="0 0 39 39" fill="none" xmlns="http://www.w3.org/2000/svg">
<g clip-path="url(#clip0_930_1549)">
<path d="M36.2199 2.77956H2.77966V36.2198H36.2199V2.77956ZM1.38959 0H38.9995V39H-0.000488281V0H1.38959Z" fill="#575656"/>
<path d="M27.8519 2.7832V19.5033H33.4192L33.4186 33.4223H5.56909V19.5033H11.1411V2.7832H13.9213V22.2829H8.34866V30.6532H30.6502V22.2829H25.0723V2.7832H27.8519Z" fill="#575656"/>
<path d="M18.1104 25.9482V2.7832H20.8899V25.9482H18.1104Z" fill="#575656"/>
<path d="M11.1382 25.0752H27.8554V27.8553H11.1382V25.0752Z" fill="#575656"/>
<path d="M16.7109 8.3584H22.283V11.138H16.7109V8.3584Z" fill="#575656"/>
<path d="M16.7109 16.7173H22.283V19.4968H16.7109V16.7173Z" fill="#575656"/>
<path d="M12.5312 8.35193H2.77954V5.57178H12.5312V8.35193Z" fill="#575656"/>
<path d="M36.2141 8.35193H27.8555V5.57178H36.2141V8.35193Z" fill="#575656"/>
</g>
<defs>
<clipPath id="clip0_930_1549">
<rect width="39" height="39" fill="white"/>
</clipPath>
</defs>
</svg>
