<?xml version="1.0" encoding="utf-8"?>
<!-- Generator: Adobe Illustrator 25.4.1, SVG Export Plug-In . SVG Version: 6.00 Build 0)  -->
<svg version="1.1" id="Layer_1" xmlns="http://www.w3.org/2000/svg" xmlns:xlink="http://www.w3.org/1999/xlink" x="0px" y="0px"
	 viewBox="0 0 120 120" style="enable-background:new 0 0 120 120;" xml:space="preserve">
<path d="M94.7,35.6c7.7,0,13.8,6.3,13.8,13.8c0,3.2-1.1,6.3-3.2,8.6c2,2.6,3.2,5.4,3.2,8.6c0,7.5-5.7,13.5-12.9,13.8l0,0H21
	c-5.2,0-9.5-4.3-9.5-9.5V44.8c0-5.2,4.3-9.5,9.5-9.5h73.7V35.6z M29.6,70.6h65.1c2,0,3.4-1.7,3.4-3.4c0-2-1.7-3.4-3.4-3.4H29.9
	c-0.6,0-1.1-0.6-1.1-1.1v-7.7c0-0.6,0.6-1.1,1.1-1.1h64.8c2,0,3.4-1.7,3.4-3.4c0-2-1.7-3.4-3.4-3.4H23c-0.9,0-1.4,0.6-1.4,1.4v20.9
	c0,0.9,0.6,1.4,1.4,1.4H29.6L29.6,70.6z"/>
</svg>
