<svg width="39" height="39" viewBox="0 0 39 39" fill="none" xmlns="http://www.w3.org/2000/svg">
<g clip-path="url(#clip0_930_1536)">
<path d="M36.2202 2.77979H2.77979V36.2202H36.2202V2.77979ZM1.3899 0H39V39H0V0H1.3899Z" fill="#575656"/>
<path fill-rule="evenodd" clip-rule="evenodd" d="M23.679 25.0718C23.679 21.9943 26.1737 19.4995 29.2512 19.4995C32.3287 19.4995 34.8235 21.9943 34.8235 25.0718C34.8235 28.1493 32.3287 30.644 29.2512 30.644C26.1737 30.644 23.679 28.1493 23.679 25.0718ZM27.2764 23.097C26.7713 23.6022 26.4587 24.3005 26.4587 25.0718C26.4587 25.843 26.7713 26.5414 27.2764 27.0466C27.7816 27.5517 28.48 27.8642 29.2512 27.8642C30.0224 27.8642 30.7208 27.5517 31.226 27.0466C31.7312 26.5414 32.0437 25.843 32.0437 25.0718C32.0437 24.3005 31.7312 23.6022 31.226 23.097C30.7208 22.5918 30.0224 22.2793 29.2512 22.2793C28.48 22.2793 27.7816 22.5918 27.2764 23.097Z" fill="#575656"/>
<path d="M27.8613 33.4302V29.251H30.6411V33.4302H27.8613Z" fill="#575656"/>
<path d="M17.4304 5.77881C17.4578 5.7957 27.1486 11.53 17.5771 19.1874L17.3137 19.398C14.4225 21.7096 11.1022 24.3643 9.42039 27.2037C8.66078 28.4859 8.28915 30.2923 8.31027 32.1082C8.33138 33.8945 8.73204 35.6429 9.51752 36.8549L7.19381 38.3641C6.11642 36.7018 5.56795 34.4119 5.54156 32.1298C5.51464 29.8399 6.01401 27.5099 7.03175 25.7922C8.96114 22.5352 12.5032 19.7031 15.5876 17.2369L15.851 17.0263C22.2963 11.87 16.0157 8.15636 15.9977 8.1458L17.4309 5.77881H17.4304Z" fill="#575656"/>
<path d="M21.5172 5.72416C21.5336 5.73261 27.2404 8.56677 27.052 13.6423C26.9406 16.6412 25.2087 18.4644 23.3379 20.4324C21.5426 22.3222 19.5921 24.3745 19.4511 27.8137C19.3656 29.8993 20.046 31.8361 21.116 33.3405C22.2494 34.9336 23.7897 36.0179 25.2731 36.2359L24.8713 38.983C22.649 38.6557 20.4208 37.1454 18.8578 34.9474C17.4594 32.9816 16.57 30.4441 16.6824 27.7049C16.8666 23.218 19.1903 20.7723 21.3293 18.5209C22.8253 16.9463 24.211 15.4883 24.2833 13.5441C24.4052 10.2581 20.2804 8.20571 20.2688 8.19937L21.5177 5.72363L21.5172 5.72416Z" fill="#575656"/>
<path d="M36.549 8.35206H1.2832V5.57227H36.549V8.35206Z" fill="#575656"/>
<path d="M13.9275 8.35547C13.9275 6.04737 12.0564 4.17628 9.74829 4.17628C7.44018 4.17628 5.56909 6.04737 5.56909 8.35547C5.56909 10.6636 7.44018 12.5347 9.74829 12.5347C12.0564 12.5347 13.9275 10.6636 13.9275 8.35547Z" fill="#FEFEFE"/>
<path fill-rule="evenodd" clip-rule="evenodd" d="M5.56909 8.35546C5.56909 6.04759 7.44041 4.17627 9.74829 4.17627C12.0562 4.17627 13.9275 6.04759 13.9275 8.35546C13.9275 10.6633 12.0562 12.5347 9.74829 12.5347C7.44041 12.5347 5.56909 10.6633 5.56909 8.35546ZM8.75852 7.3657C8.50567 7.61855 8.34889 7.96853 8.34889 8.35546C8.34889 8.7424 8.50567 9.09238 8.75852 9.34523C9.01137 9.59808 9.36135 9.75486 9.74829 9.75486C10.1352 9.75486 10.4852 9.59808 10.7381 9.34523C10.9914 9.09185 11.1477 8.7424 11.1477 8.35546C11.1477 7.96853 10.9909 7.61908 10.7381 7.3657C10.4852 7.11284 10.1352 6.95606 9.74829 6.95606C9.36135 6.95606 9.01137 7.11284 8.75852 7.3657Z" fill="#575656"/>
<path d="M8.3584 15.3203V11.1411H11.1382V15.3203H8.3584Z" fill="#575656"/>
</g>
<defs>
<clipPath id="clip0_930_1536">
<rect width="39" height="39" fill="white"/>
</clipPath>
</defs>
</svg>
