<svg width="40" height="39" viewBox="0 0 40 39" fill="none" xmlns="http://www.w3.org/2000/svg">
<g clip-path="url(#clip0_930_1580)">
<path d="M1.39507 0H39.0051V39H0.00512695V0H1.39507ZM36.2252 2.77988H2.78501V36.2201H36.2252V2.77988Z" fill="#575656"/>
<path d="M28.7219 11.1416H37.6151V13.9215H28.7219V11.1416Z" fill="#575656"/>
<path d="M6.96729 29.2549H32.0428V32.0348H6.96729V29.2549Z" fill="#575656"/>
<path fill-rule="evenodd" clip-rule="evenodd" d="M9.75353 13.1265C10.9212 13.1265 11.5953 13.6942 12.2691 14.262C12.55 14.4986 12.8308 14.7352 13.0041 14.7352C13.1773 14.7352 13.4582 14.4986 13.739 14.262C14.4129 13.6943 15.087 13.1265 16.2546 13.1265C17.4223 13.1265 18.0963 13.6942 18.7702 14.262C19.0511 14.4986 19.3319 14.7352 19.5052 14.7352C19.7073 14.7352 20.0333 14.47 20.3502 14.2123C21.0269 13.662 21.6852 13.1265 22.7555 13.1265C23.8258 13.1265 24.4844 13.662 25.1609 14.2123C25.4777 14.47 25.8037 14.7352 26.0059 14.7352C26.1791 14.7352 26.46 14.4986 26.7408 14.262C27.4149 13.6943 28.0888 13.1265 29.2564 13.1265V15.9063C29.0832 15.9063 28.8024 16.1429 28.5215 16.3795C27.8476 16.9472 27.1736 17.515 26.0059 17.515C24.8299 17.515 24.1112 16.9306 23.4125 16.3624C23.1283 16.1313 22.8518 15.9063 22.7554 15.9063C22.6589 15.9063 22.3822 16.1313 22.0982 16.3624C21.3995 16.9306 20.6808 17.515 19.5048 17.515C18.3371 17.515 17.6631 16.9473 16.9892 16.3795C16.7083 16.1429 16.4275 15.9063 16.2543 15.9063C16.081 15.9063 15.8002 16.1429 15.5193 16.3795C14.8453 16.9472 14.1714 17.515 13.0037 17.515C11.8361 17.515 11.162 16.9473 10.4881 16.3795C10.2073 16.1429 9.92641 15.9063 9.75317 15.9063V13.1265H9.75353Z" fill="#575656"/>
<path d="M11.1465 23.6826H27.8633V26.4623H11.1465V23.6826Z" fill="#575656"/>
<path d="M31.407 11.861L27.8634 26.4622L25.1785 25.7428L28.7219 11.1416L31.407 11.861Z" fill="#575656"/>
<path d="M10.5416 11.1416H1.64819V13.9215H10.5416V11.1416Z" fill="#575656"/>
<path d="M7.85645 11.861L11.1467 26.4622L13.8317 25.7428L10.5416 11.1416L7.85645 11.861Z" fill="#575656"/>
<path fill-rule="evenodd" clip-rule="evenodd" d="M12.1297 19.1276C12.1585 19.1516 12.1793 19.1697 12.2691 19.2454C12.5499 19.482 12.8308 19.7186 13.004 19.7186C13.1773 19.7186 13.4581 19.482 13.7389 19.2454C14.4128 18.6777 15.0869 18.1099 16.2546 18.1099C17.4222 18.1099 18.0963 18.6776 18.7702 19.2454C19.051 19.482 19.3319 19.7186 19.5051 19.7186C19.7073 19.7186 20.0333 19.4534 20.3501 19.1957C21.0268 18.6454 21.6852 18.1099 22.7555 18.1099C23.8258 18.1099 24.4843 18.6454 25.1608 19.1957C25.4777 19.4534 25.8037 19.7186 26.0058 19.7186C26.1791 19.7186 26.4599 19.482 26.7408 19.2454C26.8535 19.1505 26.8925 19.1163 26.9276 19.0874L28.6868 21.2265L28.5218 21.3629C27.8477 21.9306 27.1737 22.4984 26.006 22.4984C24.8301 22.4984 24.1114 21.914 23.4126 21.3458C23.1284 21.1147 22.852 20.8897 22.7555 20.8897C22.659 20.8897 22.3824 21.1147 22.0983 21.3458C21.3996 21.914 20.6809 22.4984 19.5049 22.4984C18.3373 22.4984 17.6632 21.9307 16.9893 21.3629C16.7085 21.1263 16.4276 20.8897 16.2544 20.8897C16.0811 20.8897 15.8003 21.1263 15.5195 21.3629C14.8454 21.9306 14.1715 22.4984 13.0038 22.4984C11.8362 22.4984 11.1621 21.9306 10.488 21.3629L10.3596 21.256L12.1295 19.1278L12.1297 19.1276Z" fill="#575656"/>
<path d="M35.5864 17.4173L32.0428 32.0347L29.3577 31.3151L32.9012 16.6978L35.5864 17.4173Z" fill="#575656"/>
<path d="M32.9011 16.7202H39.0097V19.4999H32.9011V16.7202Z" fill="#575656"/>
<path d="M3.42383 17.4173L6.96721 32.0347L9.65236 31.3151L6.10898 16.6978L3.42383 17.4173Z" fill="#575656"/>
<path d="M6.10899 16.7202H0.000244141V19.4999H6.10899V16.7202Z" fill="#575656"/>
<path d="M39.056 31.9193L32.3829 38.5926L30.4175 36.6272L37.0907 29.9541L39.056 31.9193Z" fill="#575656"/>
<path d="M27.9269 31.9039L21.2381 38.5925L19.2727 36.6271L25.9615 29.9385L27.9269 31.9039Z" fill="#575656"/>
<path d="M38.9252 20.9053L32.9664 26.8641L31.0012 24.8987L36.9598 18.9399L38.9252 20.9053Z" fill="#575656"/>
<path d="M17.0249 31.9115L10.3436 38.5929L8.37817 36.6275L15.0596 29.9463L17.0249 31.9115Z" fill="#575656"/>
<path d="M8.44677 29.2105L2.80304 34.8542L0.837646 32.8888L6.48138 27.2451L8.44677 29.2105Z" fill="#575656"/>
<path d="M6.59225 21.0552L2.37921 25.2681L0.413818 23.3029L4.62686 19.0898L6.59225 21.0552Z" fill="#575656"/>
</g>
<defs>
<clipPath id="clip0_930_1580">
<rect width="39.056" height="39" fill="white"/>
</clipPath>
</defs>
</svg>
