<svg width="39" height="39" viewBox="0 0 39 39" fill="none" xmlns="http://www.w3.org/2000/svg">
<path d="M36.2204 2.78003H2.78003V36.2204H36.2204V2.78003ZM1.39025 0H39V39H0V0H1.38978H1.39025Z" fill="#575656"/>
<path d="M4.2666 37.1375L15.4111 6.48975L18.017 7.43452L6.87256 38.0823L4.2666 37.1375Z" fill="#575656"/>
<path d="M32.1283 38.0823L20.9834 7.43452L23.5894 6.48975L34.7343 37.1375L32.1283 38.0823Z" fill="#575656"/>
<path d="M18.1106 34.8237V27.8584H20.8902V34.8237H18.1106Z" fill="#575656"/>
<path d="M18.1106 25.0722V19.5H20.8902V25.0722H18.1106Z" fill="#575656"/>
<path d="M18.1106 16.7138V12.5347H20.8902V16.7138H18.1106Z" fill="#575656"/>
<path d="M37.1335 8.3523H1.86719V5.57227H37.1335V8.3523Z" fill="#575656"/>
</svg>
