<svg width="39" height="39" viewBox="0 0 39 39" fill="none" xmlns="http://www.w3.org/2000/svg">
<g clip-path="url(#clip0_930_1561)">
<path d="M1.38989 0H39V39H0V0H1.38989ZM36.2201 2.77979H2.77979V36.2201H36.2201V2.77979Z" fill="#575656"/>
<path d="M27.8616 33.431V5.56934H30.6415V33.431H27.8616Z" fill="#575656"/>
<path d="M22.2893 33.431V5.56934H25.0691V33.431H22.2893Z" fill="#575656"/>
<path d="M23.676 5.57227H29.2483V8.35205H23.676V5.57227Z" fill="#575656"/>
<path d="M23.676 30.6479H29.2483V33.4277H23.676V30.6479Z" fill="#575656"/>
<path d="M29.2483 8.3584H37.6101V11.1382H29.2483V8.3584Z" fill="#575656"/>
<path d="M1.38989 27.8618H23.676V30.6417H1.38989V27.8618Z" fill="#575656"/>
<path fill-rule="evenodd" clip-rule="evenodd" d="M2.77977 20.8994C3.94743 20.8994 4.62149 21.4671 5.29543 22.0349C5.57625 22.2714 5.85708 22.5079 6.03029 22.5079C6.2035 22.5079 6.48433 22.2713 6.76515 22.0349C7.43909 21.4671 8.11303 20.8994 9.28081 20.8994C10.4485 20.8994 11.1225 21.4671 11.7965 22.0349C12.0773 22.2714 12.3581 22.5079 12.5313 22.5079C12.7335 22.5079 13.0595 22.2429 13.3764 21.9851C14.053 21.4348 14.7115 20.8994 15.7818 20.8994C16.8522 20.8994 17.5107 21.4349 18.1873 21.9851C18.5042 22.2429 18.8302 22.5079 19.0324 22.5079C19.2056 22.5079 19.4864 22.2713 19.7672 22.0349C20.4412 21.4671 21.1152 20.8994 22.2829 20.8994V23.6792C22.1097 23.6792 21.8288 23.9158 21.548 24.1523C20.8741 24.72 20.2 25.2878 19.0324 25.2878C17.8564 25.2878 17.1378 24.7034 16.439 24.1352C16.1549 23.9041 15.8782 23.6793 15.7817 23.6793C15.6852 23.6793 15.4087 23.9042 15.1245 24.1352C14.4258 24.7034 13.7072 25.2878 12.5311 25.2878C11.3634 25.2878 10.6894 24.7201 10.0154 24.1523C9.73461 23.9158 9.45378 23.6792 9.28057 23.6792C9.10736 23.6792 8.82653 23.9158 8.54571 24.1523C7.87165 24.72 7.19772 25.2878 6.03006 25.2878C4.8624 25.2878 4.18834 24.7201 3.51441 24.1523C3.23358 23.9158 2.95275 23.6792 2.77954 23.6792V20.8994H2.77977Z" fill="#575656"/>
<path fill-rule="evenodd" clip-rule="evenodd" d="M2.77977 12.541C3.94743 12.541 4.62149 13.1087 5.29543 13.6765C5.57625 13.9131 5.85708 14.1495 6.03029 14.1495C6.2035 14.1495 6.48433 13.9129 6.76515 13.6765C7.43909 13.1087 8.11303 12.541 9.28081 12.541C10.4485 12.541 11.1225 13.1087 11.7965 13.6765C12.0773 13.9131 12.3581 14.1495 12.5313 14.1495C12.7335 14.1495 13.0595 13.8845 13.3764 13.6267C14.053 13.0764 14.7115 12.541 15.7818 12.541C16.8522 12.541 17.5107 13.0765 18.1873 13.6267C18.5042 13.8845 18.8302 14.1495 19.0324 14.1495C19.2056 14.1495 19.4864 13.9129 19.7672 13.6765C20.4412 13.1087 21.1152 12.541 22.2829 12.541V15.3208C22.1097 15.3208 21.8288 15.5574 21.548 15.7939C20.8741 16.3616 20.2 16.9294 19.0324 16.9294C17.8564 16.9294 17.1378 16.345 16.439 15.7768C16.1549 15.5457 15.8782 15.3209 15.7817 15.3209C15.6852 15.3209 15.4087 15.5458 15.1245 15.7768C14.4258 16.345 13.7072 16.9294 12.5311 16.9294C11.3634 16.9294 10.6894 16.3617 10.0154 15.7939C9.73461 15.5574 9.45378 15.3208 9.28057 15.3208C9.10736 15.3208 8.82653 15.5574 8.54571 15.7939C7.87165 16.3616 7.19772 16.9294 6.03006 16.9294C4.8624 16.9294 4.18834 16.3617 3.51441 15.7939C3.23358 15.5574 2.95275 15.3208 2.77954 15.3208V12.541H2.77977Z" fill="#575656"/>
<path d="M38.5929 10.7309L30.2344 19.0894L28.269 17.1241L36.6274 8.76562L38.5929 10.7309Z" fill="#575656"/>
<path d="M27.445 33.0206L21.8727 38.5929L19.9072 36.6275L25.4795 31.0552L27.445 33.0206Z" fill="#575656"/>
<path d="M19.0864 30.2345L10.7279 38.593L8.76245 36.6275L17.121 28.269L19.0864 30.2345Z" fill="#575656"/>
<path d="M8.19178 30.2345L2.61949 35.8068L0.654053 33.8415L6.22647 28.269L8.19178 30.2345Z" fill="#575656"/>
<path d="M38.5929 21.8756L30.2344 30.2341L28.269 28.2687L36.6274 19.9102L38.5929 21.8756Z" fill="#575656"/>
<path d="M38.3394 33.0205L32.7671 38.5929L30.8018 36.6275L36.3741 31.0552L38.3394 33.0205Z" fill="#575656"/>
</g>
<defs>
<clipPath id="clip0_930_1561">
<rect width="39" height="39" fill="white"/>
</clipPath>
</defs>
</svg>
