<svg width="17" height="22" viewBox="0 0 17 22" fill="none" xmlns="http://www.w3.org/2000/svg">
<path d="M0 2.4479L0 19.9802L1.81818 19.9802L1.81818 2.4479L0 2.4479Z" fill="#575656"/>
<path d="M14.5244 2.4479L14.5244 19.9802L16.3426 19.9802L16.3426 2.4479L14.5244 2.4479Z" fill="#575656"/>
<path fill-rule="evenodd" clip-rule="evenodd" d="M0 19.9802H16.3636C16.3636 21.0516 15.5454 21.9283 14.5455 21.9283H1.81818C0.818219 21.9283 0 21.0516 0 19.9802H0Z" fill="#575656"/>
<path d="M12.7276 4.396H3.63672V6.34405H12.7276V4.396Z" fill="#575656"/>
<path d="M12.7276 8.29224H3.63672V10.2403H12.7276V8.29224Z" fill="#575656"/>
<path d="M3.63672 4.39612L3.63672 10.2402L5.4549 10.2402L5.4549 4.39612L3.63672 4.39612Z" fill="#575656"/>
<path d="M10.9092 4.39612L10.9092 10.2402L12.7274 10.2402L12.7274 4.39612L10.9092 4.39612Z" fill="#575656"/>
<path d="M5.4549 12.1882H3.63672V14.1363H5.4549V12.1882Z" fill="#575656"/>
<path d="M9.09064 12.1882H7.27246V14.1363H9.09064V12.1882Z" fill="#575656"/>
<path d="M5.4549 16.0842H3.63672V18.0323H5.4549V16.0842Z" fill="#575656"/>
<path d="M9.09064 16.0842H7.27246V18.0323H9.09064V16.0842Z" fill="#575656"/>
<path d="M12.7274 12.1882H10.9092V14.1363H12.7274V12.1882Z" fill="#575656"/>
<path d="M12.7274 16.0842H10.9092V18.0323H12.7274V16.0842Z" fill="#575656"/>
<path fill-rule="evenodd" clip-rule="evenodd" d="M0 2.44805H16.3636C16.3636 1.37666 15.5454 0.5 14.5455 0.5H1.81818C0.818219 0.5 0 1.37666 0 2.44805H0Z" fill="#575656"/>
</svg>
