<svg width="21" height="20" viewBox="0 0 21 20" fill="none" xmlns="http://www.w3.org/2000/svg">
<g clip-path="url(#clip0_828_696)">
<path fill-rule="evenodd" clip-rule="evenodd" d="M0 17.5176H21C21 18.5488 20.2125 19.3926 19.25 19.3926H1.75001C0.78752 19.3926 0 18.5488 0 17.5176H0Z" fill="#575656"/>
<path fill-rule="evenodd" clip-rule="evenodd" d="M0 17.5175V2.51759C0 1.48635 0.78752 0.642578 1.75001 0.642578V19.3926C0.78752 19.3926 0 18.5488 0 17.5175Z" fill="#575656"/>
<path fill-rule="evenodd" clip-rule="evenodd" d="M6.5914 8.14258H21.0004V10.0176H6.95256C6.7364 10.0176 6.55362 10.1676 6.49738 10.3913L4.46673 18.4699L2.77637 17.9846L4.9016 9.53004C5.11024 8.69982 5.78897 8.14258 6.5914 8.14258Z" fill="#575656"/>
<path fill-rule="evenodd" clip-rule="evenodd" d="M8.2998 4.39258H19.2502C20.2127 4.39258 21.0002 5.23635 21.0002 6.26759H8.2998V4.39258Z" fill="#575656"/>
<path fill-rule="evenodd" clip-rule="evenodd" d="M1.75015 0.642578H7.36178C8.16507 0.642578 8.84422 1.20103 9.05214 2.03233L9.98992 5.78235L8.29956 6.26762L7.45538 2.89192C7.39942 2.66808 7.21635 2.51759 7.00005 2.51759H0C0 1.48635 0.78752 0.642578 1.75001 0.642578L1.75015 0.642578Z" fill="#575656"/>
<path fill-rule="evenodd" clip-rule="evenodd" d="M19.25 19.3925V4.39258C20.2125 4.39258 21 5.23635 21 6.26759V17.5175C21 18.5488 20.2125 19.3925 19.25 19.3925Z" fill="#575656"/>
</g>
<defs>
<clipPath id="clip0_828_696">
<rect width="21" height="18.75" fill="white" transform="translate(0 0.642578)"/>
</clipPath>
</defs>
</svg>
