<svg width="21" height="23" viewBox="0 0 21 23" fill="none" xmlns="http://www.w3.org/2000/svg">
<path fill-rule="evenodd" clip-rule="evenodd" d="M17.5397 11.4595L16.287 10.0806L15.0342 8.70175L13.7813 7.32288L12.5284 5.94421L11.2756 4.56534L10.0227 3.18646L8.76985 4.56534L7.51699 5.94421L6.26412 7.32288L5.01145 8.70175L3.75859 10.0806L2.50573 11.4595L1.25286 12.8384L0 11.4595L1.25286 10.0806L2.50573 8.70175L3.75859 7.32288L5.01145 5.94421L6.26412 4.56534L7.51699 3.18646L8.76985 1.80759L10.0227 0.428711L11.2756 1.80759L10.0227 3.18646L11.2756 1.80759L12.5284 3.18646L13.7813 4.56534L15.0342 5.94421L16.287 7.32288L17.5397 8.70175L18.7926 10.0806L20.0454 11.4595L18.7926 12.8384L17.5397 11.4595Z" fill="#575656"/>
<path fill-rule="evenodd" clip-rule="evenodd" d="M4.70739 20.9786H6.47923V19.0286V17.0787V15.1287H8.25088H10.0227H11.7946H13.5664V17.0787V19.0286V20.9786H15.3381V19.0286V17.0787V15.1287V13.1786V12.2036H17.1099V13.1786V15.1287V17.0787V19.0286V20.9786V22.9287H15.3381H13.5664H11.7946V20.9786V19.0286V17.0787H10.0227H8.25088V19.0286V20.9786V22.9287H6.47923H4.70739H2.93555V20.9786V19.0286V17.0787V15.1287V13.1786V12.2036H4.70739V13.1786V15.1287V17.0787V19.0286V20.9786Z" fill="#575656"/>
</svg>
