<svg width="32" height="33" viewBox="0 0 32 33" fill="none" xmlns="http://www.w3.org/2000/svg">
<path fill-rule="evenodd" clip-rule="evenodd" d="M16 0.404297C24.8365 0.404297 32 7.56776 32 16.4043C32 25.2408 24.8365 32.4043 16 32.4043C7.16346 32.4043 0 25.2408 0 16.4043C0 7.56776 7.16346 0.404297 16 0.404297V0.404297ZM16 3.31351C23.2299 3.31351 29.0908 9.17437 29.0908 16.4043C29.0908 23.6342 23.2299 29.4951 16 29.4951C8.77007 29.4951 2.90921 23.6342 2.90921 16.4043C2.90921 9.17437 8.77007 3.31351 16 3.31351V3.31351Z" fill="#575656"/>
<path d="M17.4551 5.64087H14.5459V8.75029H17.4551V5.64087Z" fill="#575656"/>
<path fill-rule="evenodd" clip-rule="evenodd" d="M13.0918 11.8594V14.9688H14.5459V24.2965H13.0918V27.4059H14.5459V27.4062H17.4551V27.4059H18.9099V24.2965H17.4551V14.9688H17.4554V11.8594H13.0918Z" fill="#575656"/>
</svg>
