<svg width="20" height="22" viewBox="0 0 20 22" fill="none" xmlns="http://www.w3.org/2000/svg">
<path fill-rule="evenodd" clip-rule="evenodd" d="M9.52381 0.5C12.6797 0.5 15.2381 3.24118 15.2381 6.62245C15.2381 10.0037 12.6797 12.7449 9.52381 12.7449C6.36795 12.7449 3.80952 10.0037 3.80952 6.62245C3.80952 3.24118 6.36795 0.5 9.52381 0.5ZM17.145 19.8878C17.145 18.7598 16.7185 17.7388 16.0287 16.9998C15.339 16.2608 14.3861 15.8038 13.3333 15.8038V15.8061H5.71429V15.8038C4.66153 15.8038 3.70861 16.2608 3.01888 16.9998C2.32915 17.7388 1.90261 18.7598 1.90261 19.8878H17.145ZM13.3333 13.7676C14.9106 13.7676 16.3385 14.4527 17.3724 15.5602C18.4061 16.6677 19.0455 18.1978 19.0455 19.8878H19.0476C19.0476 21.0102 18.1905 21.9286 17.1429 21.9286H1.90476C0.857116 21.9286 0 21.0102 0 19.8878H0.00215288C0.00215288 18.1978 0.641559 16.6679 1.67521 15.5602C2.70886 14.4527 4.13703 13.7676 5.71429 13.7676V13.7653H13.3333V13.7676ZM12.2208 3.73278C11.5308 2.9935 10.5771 2.5362 9.52381 2.5362C8.47051 2.5362 7.51679 2.9935 6.82679 3.73278C6.13679 4.47207 5.70998 5.49392 5.70998 6.62245C5.70998 7.75098 6.13679 8.77254 6.82679 9.51212C7.51679 10.2514 8.47051 10.7087 9.52381 10.7087C10.5771 10.7087 11.5306 10.2514 12.2208 9.51212C12.9108 8.77283 13.3376 7.75098 13.3376 6.62245C13.3376 5.49392 12.9108 4.47235 12.2208 3.73278Z" fill="#575656"/>
</svg>
